<svg width="114" height="24" viewBox="0 0 114 24" fill="none" xmlns="http://www.w3.org/2000/svg">
<path d="M28.1235 1.66016V21.755H24.9297V1.66016H28.1235Z" fill="#1A1A1A"/>
<path d="M45.0396 1.66016V4.34894H36.7797V10.276H43.2224V12.9648H36.7797V21.755H33.584V1.66016H45.0396Z" fill="#1A1A1A"/>
<path d="M61.8466 1.66016V4.34894H56.6648V21.755H53.4728V4.34894H48.2617V1.66016H61.8466Z" fill="#1A1A1A"/>
<path d="M67.7846 20.6561H75.0955V21.7551H66.5254V1.45752H67.7846V20.6561Z" fill="#1A1A1A"/>
<path d="M80.4721 1.45752V21.7551H79.2129V1.45752H80.4721Z" fill="#1A1A1A"/>
<path d="M88.7068 21.2644C87.816 20.8531 87.0475 20.2043 86.4803 19.3847C85.9495 18.6091 85.6323 17.6996 85.5625 16.7527H86.8786C87.037 17.8404 87.5451 18.8415 88.3213 19.595C89.1326 20.4249 90.3698 20.8399 92.0328 20.8399C92.9075 20.861 93.7751 20.6729 94.5677 20.2904C95.2482 19.959 95.8254 19.4379 96.2343 18.7859C96.6239 18.1558 96.8279 17.4225 96.8217 16.6751C96.8217 15.6923 96.5929 14.9116 96.1352 14.333C95.6812 13.7571 95.0933 13.3093 94.4263 13.0313C93.5266 12.6684 92.6073 12.3596 91.673 12.1066C90.6276 11.8368 89.6025 11.4891 88.6058 11.0663C87.8282 10.7165 87.1525 10.1633 86.6455 9.46138C86.1132 8.73755 85.847 7.7497 85.847 6.49784C85.8381 5.55756 86.0966 4.63524 86.5904 3.84506C87.1096 3.02166 87.8422 2.36516 88.7049 1.95022C89.6967 1.46893 90.7829 1.23092 91.8786 1.25481C93.615 1.25481 95.0155 1.69694 96.0802 2.5812C97.0941 3.38083 97.7752 4.54875 97.9854 5.84791H96.6327C96.4966 5.27144 96.2466 4.7302 95.8984 4.25814C95.4699 3.68106 94.9126 3.2195 94.274 2.9128C93.4867 2.5375 92.6261 2.35527 91.7593 2.38035C90.4524 2.38035 89.351 2.75111 88.4553 3.49262C88.0198 3.84243 87.6705 4.29359 87.4361 4.80928C87.2016 5.32497 87.0886 5.89057 87.1062 6.45995C87.1062 7.44147 87.3399 8.22657 87.8074 8.81524C88.2665 9.39727 88.858 9.85295 89.5291 10.1416C90.4246 10.513 91.3447 10.8176 92.2824 11.053C93.3322 11.3343 94.3624 11.6882 95.3661 12.1123C96.1337 12.4591 96.8 13.0072 97.299 13.702C97.8313 14.4259 98.0974 15.4042 98.0974 16.6372C98.0939 17.5462 97.8475 18.4366 97.3852 19.2104C96.8866 20.0513 96.1752 20.736 95.3276 21.1905C94.4208 21.6958 93.3238 21.9484 92.0364 21.9484C90.8912 21.977 89.7541 21.7434 88.7068 21.2644Z" fill="#1A1A1A"/>
<path d="M113.998 1.45752V2.55653H108.398V21.7551H107.137V2.55653H101.535V1.45752H113.998Z" fill="#1A1A1A"/>
<path d="M10.835 13.3704H17.1163C16.8715 15.0859 16.2089 16.4445 15.1284 17.4462C14.0478 18.4479 12.6375 18.9494 10.8974 18.9507C9.69293 18.9725 8.50447 18.6632 7.45396 18.0544C6.44232 17.4544 5.62009 16.5654 5.08612 15.4945C4.49995 14.3102 4.20673 12.9947 4.23259 11.665C4.20525 10.3395 4.49861 9.02781 5.08612 7.84881C5.62357 6.78436 6.44529 5.90123 7.45396 5.30403C8.50447 4.69529 9.69293 4.38596 10.8974 4.40777C11.9797 4.38133 13.0504 4.64231 14.0068 5.16571C14.8904 5.67256 15.6089 6.43801 16.0718 7.36562L19.3244 6.0866C18.628 4.81803 17.6363 3.74867 16.4389 2.97527C14.8573 1.99003 13.0541 1.44771 11.2073 1.40185C9.36055 1.35599 7.53415 1.80819 5.90844 2.71378C4.40428 3.57211 3.15488 4.83699 2.29426 6.37272C1.39227 7.9793 0.929193 9.8083 0.954316 11.665C0.926499 13.5209 1.38639 15.3498 2.28508 16.9573C3.14333 18.4893 4.38711 19.7529 5.88458 20.6144C7.41587 21.4965 9.14399 21.9498 10.8974 21.9294C13.2447 21.9516 15.5191 21.0885 17.2935 19.502C19.0679 17.9156 20.2202 15.715 20.534 13.3135V10.7384H10.835V13.3704Z" fill="#1A1A1A"/>
</svg>
